<svg width="33" height="41" viewBox="0 0 33 41" fill="none" xmlns="http://www.w3.org/2000/svg">
<path d="M29.3597 4.49317H22.4584V2.47687C22.4584 1.11627 21.3519 0.00976562 19.9913 0.00976562H13.008C11.6474 0.00976562 10.5409 1.11627 10.5409 2.47687V4.49317H3.63953C1.73797 4.49317 0.180664 6.04229 0.180664 7.95204V11.3453C0.180664 11.7961 0.5495 12.165 1.0003 12.165H2.71334V37.5409C2.71334 39.4507 4.26245 40.9998 6.16401 40.9998H26.827C28.7368 40.9998 30.2859 39.4507 30.2859 37.5409V12.1568H31.9989C32.4497 12.1568 32.8186 11.7879 32.8186 11.3371V7.94384C32.8186 6.04229 31.2695 4.49317 29.3597 4.49317ZM12.1801 2.47687C12.1801 2.01787 12.549 1.64904 13.008 1.64904H19.9913C20.4503 1.64904 20.8191 2.01787 20.8191 2.47687V4.49317H12.1801V2.47687ZM28.6466 37.5327C28.6466 38.5409 27.8352 39.3523 26.827 39.3523H6.16401C5.16405 39.3523 4.35261 38.5409 4.35261 37.5327V12.1568H28.6466V37.5327ZM31.1793 10.5175H1.81994V7.94384C1.81994 6.94389 2.63138 6.12425 3.63953 6.12425H29.3679C30.3679 6.12425 31.1875 6.93569 31.1875 7.94384V10.5175H31.1793Z" fill="white"/>
<path d="M19.1795 36.0735C19.6303 36.0735 19.9992 35.7047 19.9992 35.2539V16.2547C19.9992 15.8039 19.6303 15.4351 19.1795 15.4351C18.7287 15.4351 18.3599 15.8039 18.3599 16.2547V35.2539C18.3599 35.7047 18.7287 36.0735 19.1795 36.0735ZM13.8191 36.0735C14.2699 36.0735 14.6387 35.7047 14.6387 35.2539V16.2547C14.6387 15.8039 14.2699 15.4351 13.8191 15.4351C13.3683 15.4351 12.9995 15.8039 12.9995 16.2547V35.2539C12.9995 35.7047 13.3601 36.0735 13.8191 36.0735ZM24.5481 36.0735C24.9989 36.0735 25.3678 35.7047 25.3678 35.2539V16.2547C25.3678 15.8039 24.9989 15.4351 24.5481 15.4351C24.0973 15.4351 23.7285 15.8039 23.7285 16.2547V35.2539C23.7285 35.7047 24.0973 36.0735 24.5481 36.0735ZM8.4505 36.0735C8.9013 36.0735 9.27013 35.7047 9.27013 35.2539V16.2547C9.27013 15.8039 8.9013 15.4351 8.4505 15.4351C7.9997 15.4351 7.63086 15.8039 7.63086 16.2547V35.2539C7.63086 35.7047 7.9997 36.0735 8.4505 36.0735Z" fill="white"/>
</svg>
